<svg id="svg_rabbish_bin" data-name="rabbish bin" xmlns="http://www.w3.org/2000/svg" width="17" height="15.844">
    <defs>
        <style>
            .cls-1{fill:none;stroke:#999;stroke-width:1px;fill-rule:evenodd}
        </style>
    </defs>
    <path class="cls-1" d="M1026.71 540.361l-.42 8.739a2.134 2.134 0 0 1-2.15 2.122h-7.28a2.134 2.134 0 0 1-2.15-2.122l-.42-8.739" transform="translate(-1011.5 -535.875)"/>
    <path class="cls-1" d="M1012 539.763h16" transform="translate(-1011.5 -535.875)"/>
    <path class="cls-1" d="M1019.43 542.734v5.093" transform="translate(-1011.5 -535.875)"/>
    <path class="cls-1" d="M1021.54 542.734v5.093" transform="translate(-1011.5 -535.875)"/>
    <path class="cls-1" d="M1016.29 540.611v-2.122a2.126 2.126 0 0 1 2.14-2.122h2.82a2.134 2.134 0 0 1 2.15 2.122v2.122" transform="translate(-1011.5 -535.875)"/>
</svg>
