<svg id="组_2" data-name="组 2" xmlns="http://www.w3.org/2000/svg" width="24.063" height="22" viewBox="0 0 24.063 22">
  <defs>
    <style>
      .cls-1, .cls-2 {
        fill: none;
        stroke: #091b2b;
        stroke-width: 1px;
      }

      .cls-1 {
        fill-rule: evenodd;
      }
    </style>
  </defs>
  <path class="cls-1" d="M459,186h3.752l3,15.14h11.757a2.087,2.087,0,0,0,2.5-1.954c0.347-2.391,1-6.349,1-6.349a1.554,1.554,0,0,0-1.751-1.953h-3.191m-7.634,0h-4.685" transform="translate(-458.5 -185.5)"/>
  <path class="cls-1" d="M465.754,201.14a2.473,2.473,0,0,0-1.5,2.2A2.031,2.031,0,0,0,466,205.291m2.742,0h8.516" transform="translate(-458.5 -185.5)"/>
  <path class="cls-1" d="M467.886,203.833a1.584,1.584,0,1,1-1.626,1.583A1.606,1.606,0,0,1,467.886,203.833Z" transform="translate(-458.5 -185.5)"/>
  <circle id="Ellipse_1_copy" data-name="Ellipse 1 copy" class="cls-2" cx="19.906" cy="19.922" r="1.625"/>
  <path id="圆角矩形_1_拷贝" data-name="圆角矩形 1 拷贝" class="cls-1" d="M476.469,192.007v5.185a2.019,2.019,0,0,1-2.043,1.994H470.34a2.019,2.019,0,0,1-2.043-1.994v-5.185h-2.043l6.129-4.786,6.129,4.786h-2.043Z" transform="translate(-458.5 -185.5)"/>
  <path id="圆角矩形_1" data-name="圆角矩形 1" class="cls-1" d="M471.157,199.031v-1.994a0.809,0.809,0,0,1,.818-0.8h0.817a0.808,0.808,0,0,1,.817.8v1.994" transform="translate(-458.5 -185.5)"/>
</svg>
