<svg id="svg_sale_house" xmlns="http://www.w3.org/2000/svg" width="24.063" height="22">
    <defs>
        <style>
            .cls-1{fill:none;stroke:#091b2b;stroke-width:1px;fill-rule:evenodd}
        </style>
    </defs>
    <path class="cls-1" d="M459 186h3.752l3 15.14h11.757a2.087 2.087 0 0 0 2.5-1.954c.347-2.391 1-6.349 1-6.349a1.554 1.554 0 0 0-1.751-1.953h-3.191m-7.634 0h-4.685" transform="translate(-458.5 -185.5)"/>
    <path class="cls-1" d="M465.754 201.14a2.473 2.473 0 0 0-1.5 2.2 2.031 2.031 0 0 0 1.746 1.951m2.742 0h8.516M467.886 203.833a1.584 1.584 0 1 1-1.626 1.583 1.606 1.606 0 0 1 1.626-1.583z" transform="translate(-458.5 -185.5)"/>
    <circle cx="19.906" cy="19.922" r="1.625" fill="none" stroke="#091b2b" stroke-width="1"/>
    <path class="cls-1" d="M476.469 192.007v5.185a2.019 2.019 0 0 1-2.043 1.994h-4.086a2.019 2.019 0 0 1-2.043-1.994v-5.185h-2.043l6.129-4.786 6.129 4.786h-2.043z" transform="translate(-458.5 -185.5)"/>
    <path class="cls-1" d="M471.157 199.031v-1.994a.809.809 0 0 1 .818-.8h.817a.808.808 0 0 1 .817.8v1.994" transform="translate(-458.5 -185.5)"/>
</svg>
