<?xml version="1.0" standalone="no"?>
<!DOCTYPE svg PUBLIC "-//W3C//DTD SVG 20010904//EN"
 "http://www.w3.org/TR/2001/REC-SVG-20010904/DTD/svg10.dtd">
<svg version="1.0" xmlns="http://www.w3.org/2000/svg"
 width="499.000000pt" height="498.000000pt" viewBox="0 0 499.000000 498.000000"
 preserveAspectRatio="xMidYMid meet">
<metadata>
Created by potrace 1.15, written by Peter Selinger 2001-2017
</metadata>
<g transform="translate(0.000000,498.000000) scale(0.100000,-0.100000)"
fill="#000000" stroke="none">
<path d="M2240 4147 c-101 -30 -172 -71 -246 -139 -34 -32 -70 -58 -81 -58
-11 0 -52 -16 -91 -35 -157 -79 -303 -295 -412 -610 -100 -291 -150 -561 -157
-855 -5 -169 -3 -216 11 -270 22 -90 96 -235 151 -297 73 -83 90 -90 250 -102
77 -6 170 -11 206 -11 93 0 102 14 107 177 l4 121 -45 74 c-63 101 -139 264
-177 381 -18 53 -37 97 -44 97 -22 0 -85 74 -109 130 -31 70 -47 145 -47 221
0 65 21 129 43 129 14 0 48 -33 64 -63 7 -13 13 12 21 95 13 133 32 210 72
295 49 106 148 194 244 217 25 6 34 1 71 -37 90 -94 214 -177 354 -236 41 -17
165 -59 275 -92 304 -92 381 -133 420 -221 l21 -48 30 55 c33 61 47 65 79 22
39 -53 34 -192 -14 -319 -22 -58 -80 -135 -112 -147 -14 -5 -29 -37 -53 -110
-38 -115 -122 -293 -185 -391 l-43 -65 6 -85 c6 -85 31 -180 48 -180 15 0 58
-73 79 -134 42 -119 73 -320 85 -551 l7 -130 -29 45 c-42 64 -136 175 -139
164 -2 -5 -13 -85 -24 -179 -41 -324 -101 -601 -189 -862 l-48 -143 1173 0
1174 0 0 1122 0 1122 -73 -72 -73 -72 -934 936 c-551 552 -958 952 -992 976
-85 57 -211 115 -302 138 -112 28 -274 27 -376 -3z"/>
<path d="M1880 1689 c-67 -51 -214 -91 -545 -149 -203 -35 -238 -50 -303 -127
-97 -116 -174 -289 -268 -601 -53 -175 -192 -673 -219 -785 l-7 -27 870 0 870
0 -49 140 c-97 279 -208 739 -235 982 -4 32 -9 58 -13 58 -3 0 -29 -32 -58
-70 -37 -50 -53 -65 -57 -54 -10 26 -7 349 5 449 5 52 16 118 24 147 7 29 13
54 12 55 -1 1 -13 -7 -27 -18z"/>
</g>
</svg>
